<?xml version="1.0" encoding="UTF-8"?>
<svg version="1.1" viewBox="0 0 2048 2048" width="512" height="512" xmlns="http://www.w3.org/2000/svg">
<path transform="translate(977)" d="m0 0h102l4 2 43 7 31 7 35 11 24 9 23 10 19 9 22 12 16 10 11 7 20 14 18 14 13 11 10 8v2l4 2 30 30v2h2l9 11 12 14 15 20 13 19 12 19 11 19 8 16 12 26 11 28 10 31 8 32 6 32 4 35 1 16v26h16l31 2 33 4 32 6 32 8 41 14 15 6 15 7 19 9 23 13 15 9 11 7 20 14 18 14 13 11 10 9 8 7 26 26v2h2l9 11 12 14 15 20 13 19 12 19 11 19 8 16 12 26 11 28 10 31 7 28 7 36 3 21h2v111l-2 1-5 33-6 31-10 36-11 31-11 26-12 25-13 23-12 20-8 11-9 13-13 17-12 14-10 11-7 8-22 22-8 7-14 12-15 12-18 13-15 10-21 13-22 12-22 11-31 13-36 12-30 8-24 5-26 4-28 3-39 2 1 5-2 38-4 34-5 27-6 26-11 36-11 29-13 29-13 25-10 17-9 14-11 16-8 11-11 14-11 13-10 11-7 8-22 22-8 7-14 12-15 12-18 13-15 10-21 13-22 12-24 12-32 13-36 12-31 8-31 6-38 6h-88l-25-4-35-6-30-7-29-9-20-7-24-10-29-14-19-10-18-11-18-12-14-10-18-14-14-12-13-12-16-15-14-15-11-12-22-28-12-17-11-17-13-22-14-27-10-22-13-34-10-33-8-36-5-32-3-32-1-32-3 1-37-2-28-3-36-6-36-9-23-7-32-12-33-15-26-14-23-14-23-16-13-10-14-11-12-11-8-7-7-7-8-7-7-7-7-8-7-7-9-11-11-13-14-19-13-19-11-18-12-21-13-26-10-24-10-27-10-34-7-32-6-39v-6h-2v-100l2-9 6-39 7-31 10-34 9-25 9-21 12-25 11-21 11-18 16-24 8-11 13-17 10-11 9-11 8-8 7-8 7-7 8-7 7-7 11-9 13-11 16-12 19-13 17-11 21-12 23-12 27-12 29-11 26-8 24-6 24-5 26-4 17-2 35-2h13l1-33 3-31 5-32 7-31 9-31 10-28 11-26 9-19 12-22 11-18 16-24 11-15 11-14 13-15 12-13 3-4h2l2-4 8-8 8-7 7-7 11-9 13-11 16-12 19-13 17-11 28-16 29-14 27-11 36-12 26-7 34-7zm42 244-11 2-14 7-10 9-10 14-29 44-29 43-7 11-132 198-6 12-3 16 2 14 4 10 5 8 6 7 11 7 11 4 5 1h424l11-3 10-5 8-6 8-11 5-12 1-5v-17l-5-15-10-16-29-43-29-44-29-43-29-44-29-43-29-44-23-34-9-10-11-7-13-4-7-1zm-707 575-15 1-12 4-9 6-7 6-7 11-4 10-1 5-1 17v293l1 14 4 13 6 10 9 9 16 8 9 2 13 1h240l67-1 12-3 11-6 9-8 7-11 4-11 1-8v-315l-3-14-6-11-9-10-9-6-11-4-16-2zm1256 1-26 4-24 7-17 7-19 10-16 11-10 8-12 11-8 8v2l-3 1-13 17-12 19-11 23-7 21-5 24-2 18v27l3 23 6 25 10 25 10 19 9 13 9 12 15 16 12 11 18 13 17 10 22 10 19 6 25 5 20 2h19l19-2 17-3 21-6 20-8 15-8 17-11 14-11 13-12 12-13 14-19 9-16 9-19 7-21 4-17 3-24v-28l-3-24-6-24-7-19-8-17-11-18-10-13-11-13-9-9-11-9-15-11-19-11-17-8-21-7-22-5-15-2zm-683 626-11 4-10 6-9 9-6 10-3 9-1 6v14l4 13 7 12 95 95-2 4-5 4-7 8-81 81-5 9-4 10-1 5v15l4 13 6 10 7 8 13 8 16 4h8l11-2 14-7 9-7v-2l4-2v-2l4-2 2-4 4-2v-2l4-2v-2l4-2v-2l4-2v-2h2v-2h2v-2l4-2v-2l4-2v-2l4-2v-2l4-2v-2l4-2v-2l4-2v-2l4-2v-2l4-2 27-27 4 2 91 91 12 8 12 4 14 1 16-4 11-6 7-6 7-10 4-9 2-9v-13l-3-12-5-10-11-13-32-32h-2l-2-4h-2l-2-4h-2l-2-4-28-28h-2l-2-4h-2l-2-4-7-6-1-3 4-2 88-88v-2h2l7-10 4-9 2-9v-13l-3-12-5-10-7-9-10-7-11-5-5-1h-20l-10 3-11 7-5 4v2h-2v2h-2v2h-2v2h-2v2h-2v2h-2v2h-2v2h-2l-6 7-6 5-6 7-6 5-6 7-24 24-6 5-7 8-5 4-2 3-4 1-2-4-32-32h-2l-2-4h-2l-2-4h-2l-2-4h-2l-2-4-6-5-6-7-6-5-6-7-4-4h-2l-2-4h-2l-2-4-8-7-11-7-11-4z"/>
<path transform="translate(358,921)" d="m0 0h205l1 2v202l-7 2h-198l-1-1-1-14v-188z"/>
<path transform="translate(1575,921)" d="m0 0h24l15 3 12 4 14 7 14 10 12 12 10 14 7 14 5 16 2 11v24l-4 19-6 15-10 16-14 15-12 9-10 6-15 6-16 4-7 1h-18l-17-3-14-5-14-7-13-10-8-7-11-14-6-10-6-15-4-15-1-7v-21l4-19 6-15 8-14 9-11 10-10 13-9 16-8 13-4z"/>
<path transform="translate(1023,386)" d="m0 0 4 2 10 16 29 43 29 44 29 43 9 14v2h-218l2-5 29-44 22-33 29-43 9-14 14-21z"/>
<path transform="translate(971,2047)" d="m0 0h5v1h-5z"/>
</svg>
